<svg  viewBox="0 0 1588 2086" fill="none" xmlns="http://www.w3.org/2000/svg">
<g style="mix-blend-mode:screen">
<path d="M1585.47 1927.95C1590.46 1936.59 1587.51 1947.64 1578.79 1952.48C1451.86 2022.92 1311.79 2066.64 1167.19 2080.88C1016.61 2095.71 864.593 2078.22 721.31 2029.59C578.027 1980.95 446.779 1902.28 336.342 1798.85C225.904 1695.41 138.821 1569.59 80.9162 1429.79C23.0113 1290 -4.38161 1139.45 0.569125 988.22C5.51986 836.988 42.7001 688.556 109.624 552.848C176.548 417.139 271.673 297.282 388.639 201.29C500.952 109.118 630.917 40.9883 770.478 1.04116C780.062 -1.70224 789.966 4.02746 792.546 13.6571V13.6571C795.127 23.2867 789.406 33.1693 779.823 35.9184C645.226 74.5318 519.882 140.285 411.542 229.198C298.548 321.93 206.654 437.716 142.003 568.815C77.3521 699.915 41.4346 843.306 36.652 989.401C31.8694 1135.5 58.3319 1280.93 114.27 1415.98C170.209 1551.02 254.334 1672.57 361.021 1772.5C467.708 1872.42 594.498 1948.41 732.915 1995.4C871.331 2042.39 1018.18 2059.28 1163.65 2044.95C1303.13 2031.22 1438.26 1989.08 1560.74 1921.21C1569.46 1916.38 1580.49 1919.32 1585.47 1927.95V1927.95Z" fill="#38026F" fill-opacity="0.3"/>
</g>
</svg>
