<svg width="1147" height="756" viewBox="0 0 1147 756" fill="none" xmlns="http://www.w3.org/2000/svg">
<g id="Frame 97">
<g id="OdourPoint">
<g id="circle5131" filter="url(#filter0_b_608_13503)">
<path d="M602.77 236.541C604.853 236.541 606.541 234.853 606.541 232.771C606.541 230.688 604.853 229 602.77 229C600.688 229 599 230.688 599 232.771C599 234.853 600.688 236.541 602.77 236.541Z" fill="white"/>
</g>
<g id="circle5133" filter="url(#filter1_b_608_13503)">
<path d="M602.535 245.103C609.476 245.103 615.103 239.476 615.103 232.535C615.103 225.594 609.476 219.967 602.535 219.967C595.594 219.967 589.967 225.594 589.967 232.535C589.967 239.476 595.594 245.103 602.535 245.103Z" stroke="white" stroke-width="1.90136"/>
</g>
</g>
<g id="OdourPath" filter="url(#filter2_b_608_13503)">
<path d="M291 306.5H472L603 233" stroke="url(#paint0_linear_608_13503)" stroke-width="2.14452"/>
</g>
<text id="Odour" fill="white" xml:space="preserve" style="white-space: pre" font-family="Work Sans" font-size="21.4452" font-weight="300" letter-spacing="0em"><tspan x="289" y="298.866">Odour Resistant</tspan></text>
<g id="QuickdryPoint">
<g id="circle5131_2" filter="url(#filter3_b_608_13503)">
<path d="M723.77 275.541C725.853 275.541 727.541 273.853 727.541 271.771C727.541 269.688 725.853 268 723.77 268C721.688 268 720 269.688 720 271.771C720 273.853 721.688 275.541 723.77 275.541Z" fill="white"/>
</g>
<g id="circle5133_2" filter="url(#filter4_b_608_13503)">
<path d="M723.535 284.103C730.476 284.103 736.103 278.476 736.103 271.535C736.103 264.594 730.476 258.967 723.535 258.967C716.594 258.967 710.967 264.594 710.967 271.535C710.967 278.476 716.594 284.103 723.535 284.103Z" stroke="white" stroke-width="1.90136"/>
</g>
</g>
<g id="QuickdryPath" filter="url(#filter5_b_608_13503)">
<path d="M979 203H863.93L724 272.161" stroke="url(#paint1_linear_608_13503)" stroke-width="2.14452"/>
</g>
<text id="Quickdry" fill="white" xml:space="preserve" style="white-space: pre" font-family="Work Sans" font-size="21.4452" font-weight="300" letter-spacing="0em"><tspan x="889" y="192.866">Quickdry</tspan></text>
<g id="ThermoPoint">
<g id="circle5131_3" filter="url(#filter6_b_608_13503)">
<path d="M756.77 198.541C758.853 198.541 760.541 196.853 760.541 194.771C760.541 192.688 758.853 191 756.77 191C754.688 191 753 192.688 753 194.771C753 196.853 754.688 198.541 756.77 198.541Z" fill="white"/>
</g>
<g id="circle5133_3" filter="url(#filter7_b_608_13503)">
<path d="M756.535 207.103C763.476 207.103 769.103 201.476 769.103 194.535C769.103 187.594 763.476 181.967 756.535 181.967C749.594 181.967 743.967 187.594 743.967 194.535C743.967 201.476 749.594 207.103 756.535 207.103Z" stroke="white" stroke-width="1.90136"/>
</g>
</g>
<g id="ThermoPath" filter="url(#filter8_b_608_13503)">
<path d="M1051.5 103.5L845.461 103.5L757 195.046" stroke="url(#paint2_linear_608_13503)" stroke-width="2.14452"/>
</g>
<text id="Thermo" fill="white" xml:space="preserve" style="white-space: pre" font-family="Work Sans" font-size="21.4452" font-weight="300" letter-spacing="0em"><tspan x="875" y="93.8664">Thermoregulation</tspan></text>
<g id="2ndSkinPoint">
<g id="circle5131_4" filter="url(#filter9_b_608_13503)">
<path d="M782.77 337.541C784.853 337.541 786.541 335.853 786.541 333.771C786.541 331.688 784.853 330 782.77 330C780.688 330 779 331.688 779 333.771C779 335.853 780.688 337.541 782.77 337.541Z" fill="white"/>
</g>
<g id="circle5133_4" filter="url(#filter10_b_608_13503)">
<path d="M782.535 346.103C789.476 346.103 795.103 340.476 795.103 333.535C795.103 326.594 789.476 320.967 782.535 320.967C775.594 320.967 769.967 326.594 769.967 333.535C769.967 340.476 775.594 346.103 782.535 346.103Z" stroke="white" stroke-width="1.90136"/>
</g>
</g>
<g id="2ndSkinPath" filter="url(#filter11_b_608_13503)">
<path d="M1090.5 371.5H855.5L783 334" stroke="url(#paint3_linear_608_13503)" stroke-width="2.14452"/>
</g>
<text id="2ndSkin" fill="white" xml:space="preserve" style="white-space: pre" font-family="Work Sans" font-size="21.4452" font-weight="300" letter-spacing="0em"><tspan x="899" y="362.866">Second Skin Effect</tspan></text>
<g id="NaturalPoint">
<g id="circle5131_5" filter="url(#filter12_b_608_13503)">
<path d="M641.774 164.716C643.857 164.716 645.545 163.028 645.545 160.946C645.545 158.863 643.857 157.175 641.774 157.175C639.692 157.175 638.004 158.863 638.004 160.946C638.004 163.028 639.692 164.716 641.774 164.716Z" fill="white"/>
</g>
<g id="circle5133_5" filter="url(#filter13_b_608_13503)">
<path d="M641.535 173.103C648.476 173.103 654.103 167.476 654.103 160.535C654.103 153.594 648.476 147.967 641.535 147.967C634.594 147.967 628.967 153.594 628.967 160.535C628.967 167.476 634.594 173.103 641.535 173.103Z" stroke="white" stroke-width="1.90136"/>
</g>
</g>
<g id="naturalPath" filter="url(#filter14_b_608_13503)">
<path d="M399 69H522.26L642.255 161.083" stroke="url(#paint4_linear_608_13503)" stroke-width="2.14452"/>
</g>
<text id="Natural" fill="white" xml:space="preserve" style="white-space: pre" font-family="Work Sans" font-size="21.4452" font-weight="300" letter-spacing="0em"><tspan x="399" y="58.8664">Natural</tspan></text>
</g>
<defs>
<filter id="filter0_b_608_13503" x="598.227" y="228.227" width="9.08788" height="9.08788" filterUnits="userSpaceOnUse" color-interpolation-filters="sRGB">
<feFlood flood-opacity="0" result="BackgroundImageFix"/>
<feGaussianBlur in="BackgroundImageFix" stdDeviation="0.386716"/>
<feComposite in2="SourceAlpha" operator="in" result="effect1_backgroundBlur_608_13503"/>
<feBlend mode="normal" in="SourceGraphic" in2="effect1_backgroundBlur_608_13503" result="shape"/>
</filter>
<filter id="filter1_b_608_13503" x="588.243" y="218.243" width="28.584" height="28.585" filterUnits="userSpaceOnUse" color-interpolation-filters="sRGB">
<feFlood flood-opacity="0" result="BackgroundImageFix"/>
<feGaussianBlur in="BackgroundImageFix" stdDeviation="0.386716"/>
<feComposite in2="SourceAlpha" operator="in" result="effect1_backgroundBlur_608_13503"/>
<feBlend mode="normal" in="SourceGraphic" in2="effect1_backgroundBlur_608_13503" result="shape"/>
</filter>
<filter id="filter2_b_608_13503" x="286.711" y="227.776" width="321.102" height="84.0854" filterUnits="userSpaceOnUse" color-interpolation-filters="sRGB">
<feFlood flood-opacity="0" result="BackgroundImageFix"/>
<feGaussianBlur in="BackgroundImageFix" stdDeviation="2.14452"/>
<feComposite in2="SourceAlpha" operator="in" result="effect1_backgroundBlur_608_13503"/>
<feBlend mode="normal" in="SourceGraphic" in2="effect1_backgroundBlur_608_13503" result="shape"/>
</filter>
<filter id="filter3_b_608_13503" x="719.227" y="267.227" width="9.08788" height="9.08788" filterUnits="userSpaceOnUse" color-interpolation-filters="sRGB">
<feFlood flood-opacity="0" result="BackgroundImageFix"/>
<feGaussianBlur in="BackgroundImageFix" stdDeviation="0.386716"/>
<feComposite in2="SourceAlpha" operator="in" result="effect1_backgroundBlur_608_13503"/>
<feBlend mode="normal" in="SourceGraphic" in2="effect1_backgroundBlur_608_13503" result="shape"/>
</filter>
<filter id="filter4_b_608_13503" x="709.243" y="257.243" width="28.584" height="28.585" filterUnits="userSpaceOnUse" color-interpolation-filters="sRGB">
<feFlood flood-opacity="0" result="BackgroundImageFix"/>
<feGaussianBlur in="BackgroundImageFix" stdDeviation="0.386716"/>
<feComposite in2="SourceAlpha" operator="in" result="effect1_backgroundBlur_608_13503"/>
<feBlend mode="normal" in="SourceGraphic" in2="effect1_backgroundBlur_608_13503" result="shape"/>
</filter>
<filter id="filter5_b_608_13503" x="719.235" y="197.639" width="264.054" height="79.7724" filterUnits="userSpaceOnUse" color-interpolation-filters="sRGB">
<feFlood flood-opacity="0" result="BackgroundImageFix"/>
<feGaussianBlur in="BackgroundImageFix" stdDeviation="2.14452"/>
<feComposite in2="SourceAlpha" operator="in" result="effect1_backgroundBlur_608_13503"/>
<feBlend mode="normal" in="SourceGraphic" in2="effect1_backgroundBlur_608_13503" result="shape"/>
</filter>
<filter id="filter6_b_608_13503" x="752.227" y="190.227" width="9.08788" height="9.08788" filterUnits="userSpaceOnUse" color-interpolation-filters="sRGB">
<feFlood flood-opacity="0" result="BackgroundImageFix"/>
<feGaussianBlur in="BackgroundImageFix" stdDeviation="0.386716"/>
<feComposite in2="SourceAlpha" operator="in" result="effect1_backgroundBlur_608_13503"/>
<feBlend mode="normal" in="SourceGraphic" in2="effect1_backgroundBlur_608_13503" result="shape"/>
</filter>
<filter id="filter7_b_608_13503" x="742.243" y="180.243" width="28.584" height="28.585" filterUnits="userSpaceOnUse" color-interpolation-filters="sRGB">
<feFlood flood-opacity="0" result="BackgroundImageFix"/>
<feGaussianBlur in="BackgroundImageFix" stdDeviation="0.386716"/>
<feComposite in2="SourceAlpha" operator="in" result="effect1_backgroundBlur_608_13503"/>
<feBlend mode="normal" in="SourceGraphic" in2="effect1_backgroundBlur_608_13503" result="shape"/>
</filter>
<filter id="filter8_b_608_13503" x="751.939" y="98.1387" width="303.85" height="101.941" filterUnits="userSpaceOnUse" color-interpolation-filters="sRGB">
<feFlood flood-opacity="0" result="BackgroundImageFix"/>
<feGaussianBlur in="BackgroundImageFix" stdDeviation="2.14452"/>
<feComposite in2="SourceAlpha" operator="in" result="effect1_backgroundBlur_608_13503"/>
<feBlend mode="normal" in="SourceGraphic" in2="effect1_backgroundBlur_608_13503" result="shape"/>
</filter>
<filter id="filter9_b_608_13503" x="778.227" y="329.227" width="9.08788" height="9.08788" filterUnits="userSpaceOnUse" color-interpolation-filters="sRGB">
<feFlood flood-opacity="0" result="BackgroundImageFix"/>
<feGaussianBlur in="BackgroundImageFix" stdDeviation="0.386716"/>
<feComposite in2="SourceAlpha" operator="in" result="effect1_backgroundBlur_608_13503"/>
<feBlend mode="normal" in="SourceGraphic" in2="effect1_backgroundBlur_608_13503" result="shape"/>
</filter>
<filter id="filter10_b_608_13503" x="768.243" y="319.243" width="28.584" height="28.585" filterUnits="userSpaceOnUse" color-interpolation-filters="sRGB">
<feFlood flood-opacity="0" result="BackgroundImageFix"/>
<feGaussianBlur in="BackgroundImageFix" stdDeviation="0.386716"/>
<feComposite in2="SourceAlpha" operator="in" result="effect1_backgroundBlur_608_13503"/>
<feBlend mode="normal" in="SourceGraphic" in2="effect1_backgroundBlur_608_13503" result="shape"/>
</filter>
<filter id="filter11_b_608_13503" x="778.219" y="328.758" width="316.57" height="48.103" filterUnits="userSpaceOnUse" color-interpolation-filters="sRGB">
<feFlood flood-opacity="0" result="BackgroundImageFix"/>
<feGaussianBlur in="BackgroundImageFix" stdDeviation="2.14452"/>
<feComposite in2="SourceAlpha" operator="in" result="effect1_backgroundBlur_608_13503"/>
<feBlend mode="normal" in="SourceGraphic" in2="effect1_backgroundBlur_608_13503" result="shape"/>
</filter>
<filter id="filter12_b_608_13503" x="637.23" y="156.402" width="9.08788" height="9.08788" filterUnits="userSpaceOnUse" color-interpolation-filters="sRGB">
<feFlood flood-opacity="0" result="BackgroundImageFix"/>
<feGaussianBlur in="BackgroundImageFix" stdDeviation="0.386716"/>
<feComposite in2="SourceAlpha" operator="in" result="effect1_backgroundBlur_608_13503"/>
<feBlend mode="normal" in="SourceGraphic" in2="effect1_backgroundBlur_608_13503" result="shape"/>
</filter>
<filter id="filter13_b_608_13503" x="627.243" y="146.243" width="28.584" height="28.585" filterUnits="userSpaceOnUse" color-interpolation-filters="sRGB">
<feFlood flood-opacity="0" result="BackgroundImageFix"/>
<feGaussianBlur in="BackgroundImageFix" stdDeviation="0.386716"/>
<feComposite in2="SourceAlpha" operator="in" result="effect1_backgroundBlur_608_13503"/>
<feBlend mode="normal" in="SourceGraphic" in2="effect1_backgroundBlur_608_13503" result="shape"/>
</filter>
<filter id="filter14_b_608_13503" x="394.711" y="63.6387" width="252.485" height="102.584" filterUnits="userSpaceOnUse" color-interpolation-filters="sRGB">
<feFlood flood-opacity="0" result="BackgroundImageFix"/>
<feGaussianBlur in="BackgroundImageFix" stdDeviation="2.14452"/>
<feComposite in2="SourceAlpha" operator="in" result="effect1_backgroundBlur_608_13503"/>
<feBlend mode="normal" in="SourceGraphic" in2="effect1_backgroundBlur_608_13503" result="shape"/>
</filter>
<linearGradient id="paint0_linear_608_13503" x1="447" y1="306.5" x2="291" y2="306.5" gradientUnits="userSpaceOnUse">
<stop stop-color="white"/>
<stop offset="1" stop-color="white" stop-opacity="0"/>
</linearGradient>
<linearGradient id="paint1_linear_608_13503" x1="881" y1="203" x2="979" y2="203" gradientUnits="userSpaceOnUse">
<stop stop-color="white"/>
<stop offset="1" stop-color="white" stop-opacity="0"/>
</linearGradient>
<linearGradient id="paint2_linear_608_13503" x1="904.25" y1="103.5" x2="1049.5" y2="103.5" gradientUnits="userSpaceOnUse">
<stop stop-color="white"/>
<stop offset="1" stop-color="white" stop-opacity="0"/>
</linearGradient>
<linearGradient id="paint3_linear_608_13503" x1="936.75" y1="371.5" x2="1090" y2="371.5" gradientUnits="userSpaceOnUse">
<stop stop-color="white"/>
<stop offset="1" stop-color="white" stop-opacity="0"/>
</linearGradient>
<linearGradient id="paint4_linear_608_13503" x1="520.627" y1="69" x2="399" y2="69" gradientUnits="userSpaceOnUse">
<stop stop-color="white"/>
<stop offset="1" stop-color="white" stop-opacity="0"/>
</linearGradient>
</defs>
</svg>
