<svg width="2295" height="1076" viewBox="0 0 2295 1076" fill="none" xmlns="http://www.w3.org/2000/svg">
<rect width="2295" height="1076" fill="#091627"/>

<g id="OdourPoint">
<path d="M602.77 556.541C604.853 556.541 606.541 554.853 606.541 552.771C606.541 550.688 604.853 549 602.77 549C600.688 549 599 550.688 599 552.771C599 554.853 600.688 556.541 602.77 556.541Z" fill="white"/>
<path d="M602.535 565.103C609.476 565.103 615.103 559.476 615.103 552.535C615.103 545.594 609.476 539.967 602.535 539.967C595.594 539.967 589.967 545.594 589.967 552.535C589.967 559.476 595.594 565.103 602.535 565.103Z" stroke="white" stroke-width="1.90136"/>
</g>
<g id="OdourPath" filter="url(#filter2_b_608_13421)">
<path d="M291 626.5H472L603 553" stroke="url(#paint0_linear_608_13421)" stroke-width="2.14452"/>
</g>
<text id="Odour" fill="white" xml:space="preserve" style="white-space: pre" font-family="Work Sans" font-size="21.4452" font-weight="300" letter-spacing="0em"><tspan x="289" y="618.866">Odour Resistant</tspan></text>

<g id="QuickdryPoint">
<path d="M723.77 595.541C725.853 595.541 727.541 593.853 727.541 591.771C727.541 589.688 725.853 588 723.77 588C721.688 588 720 589.688 720 591.771C720 593.853 721.688 595.541 723.77 595.541Z" fill="white"/>
<path d="M723.535 604.103C730.476 604.103 736.103 598.476 736.103 591.535C736.103 584.594 730.476 578.967 723.535 578.967C716.594 578.967 710.967 584.594 710.967 591.535C710.967 598.476 716.594 604.103 723.535 604.103Z" stroke="white" stroke-width="1.90136"/>
</g>
<g id="QuickdryPath" filter="url(#filter5_b_608_13421)">
<path d="M979 523H863.93L724 592.161" stroke="url(#paint1_linear_608_13421)" stroke-width="2.14452"/>
</g>
<text id="Quickdry" fill="white" xml:space="preserve" style="white-space: pre" font-family="Work Sans" font-size="21.4452" font-weight="300" letter-spacing="0em"><tspan x="889" y="512.866">Quickdry</tspan></text>

<g id="ThermoPoint">
<path d="M756.77 518.541C758.853 518.541 760.541 516.853 760.541 514.771C760.541 512.688 758.853 511 756.77 511C754.688 511 753 512.688 753 514.771C753 516.853 754.688 518.541 756.77 518.541Z" fill="white"/>
<path d="M756.535 527.103C763.476 527.103 769.103 521.476 769.103 514.535C769.103 507.594 763.476 501.967 756.535 501.967C749.594 501.967 743.967 507.594 743.967 514.535C743.967 521.476 749.594 527.103 756.535 527.103Z" stroke="white" stroke-width="1.90136"/>
</g>
<g id="ThermoPath" filter="url(#filter8_b_608_13421)">
<path d="M1051.5 423.5L845.461 423.5L757 515.046" stroke="url(#paint2_linear_608_13421)" stroke-width="2.14452"/>
</g>
<text id="Thermo" fill="white" xml:space="preserve" style="white-space: pre" font-family="Work Sans" font-size="21.4452" font-weight="300" letter-spacing="0em"><tspan x="875" y="413.866">Thermoregulation</tspan></text>

<g id="2ndSkinPoint">
<path d="M782.77 657.541C784.853 657.541 786.541 655.853 786.541 653.771C786.541 651.688 784.853 650 782.77 650C780.688 650 779 651.688 779 653.771C779 655.853 780.688 657.541 782.77 657.541Z" fill="white"/>
<path d="M782.535 666.103C789.476 666.103 795.103 660.476 795.103 653.535C795.103 646.594 789.476 640.967 782.535 640.967C775.594 640.967 769.967 646.594 769.967 653.535C769.967 660.476 775.594 666.103 782.535 666.103Z" stroke="white" stroke-width="1.90136"/>
</g>
<g id="2ndSkinPath" filter="url(#filter11_b_608_13421)">
<path d="M1090.5 691.5H855.5L783 654" stroke="url(#paint3_linear_608_13421)" stroke-width="2.14452"/>
</g>
<text id="2ndSkin" fill="white" xml:space="preserve" style="white-space: pre" font-family="Work Sans" font-size="21.4452" font-weight="300" letter-spacing="0em"><tspan x="899" y="682.866">Second Skin Effect</tspan></text>

<g id="NaturalPoint">
<path d="M641.774 484.716C643.857 484.716 645.545 483.028 645.545 480.946C645.545 478.863 643.857 477.175 641.774 477.175C639.692 477.175 638.004 478.863 638.004 480.946C638.004 483.028 639.692 484.716 641.774 484.716Z" fill="white"/>
<path d="M641.535 493.103C648.476 493.103 654.103 487.476 654.103 480.535C654.103 473.594 648.476 467.967 641.535 467.967C634.594 467.967 628.967 473.594 628.967 480.535C628.967 487.476 634.594 493.103 641.535 493.103Z" stroke="white" stroke-width="1.90136"/>
</g>
</g>
<g id="naturalPath" filter="url(#filter14_b_608_13421)">
<path d="M399 389H522.26L642.255 481.083" stroke="url(#paint4_linear_608_13421)" stroke-width="2.14452"/>
</g>
<text id="Natural" fill="white" xml:space="preserve" style="white-space: pre" font-family="Work Sans" font-size="21.4452" font-weight="300" letter-spacing="0em"><tspan x="399" y="378.866">Natural</tspan></text>

<defs>
<filter id="filter0_b_608_13421" x="598.227" y="548.227" width="9.08788" height="9.08788" filterUnits="userSpaceOnUse" color-interpolation-filters="sRGB">
<feFlood flood-opacity="0" result="BackgroundImageFix"/>
<feGaussianBlur in="BackgroundImageFix" stdDeviation="0.386716"/>
<feComposite in2="SourceAlpha" operator="in" result="effect1_backgroundBlur_608_13421"/>
<feBlend mode="normal" in="SourceGraphic" in2="effect1_backgroundBlur_608_13421" result="shape"/>
</filter>
<filter id="filter1_b_608_13421" x="588.243" y="538.243" width="28.584" height="28.585" filterUnits="userSpaceOnUse" color-interpolation-filters="sRGB">
<feFlood flood-opacity="0" result="BackgroundImageFix"/>
<feGaussianBlur in="BackgroundImageFix" stdDeviation="0.386716"/>
<feComposite in2="SourceAlpha" operator="in" result="effect1_backgroundBlur_608_13421"/>
<feBlend mode="normal" in="SourceGraphic" in2="effect1_backgroundBlur_608_13421" result="shape"/>
</filter>
<filter id="filter2_b_608_13421" x="286.711" y="547.776" width="321.102" height="84.0854" filterUnits="userSpaceOnUse" color-interpolation-filters="sRGB">
<feFlood flood-opacity="0" result="BackgroundImageFix"/>
<feGaussianBlur in="BackgroundImageFix" stdDeviation="2.14452"/>
<feComposite in2="SourceAlpha" operator="in" result="effect1_backgroundBlur_608_13421"/>
<feBlend mode="normal" in="SourceGraphic" in2="effect1_backgroundBlur_608_13421" result="shape"/>
</filter>
<filter id="filter3_b_608_13421" x="719.227" y="587.227" width="9.08788" height="9.08788" filterUnits="userSpaceOnUse" color-interpolation-filters="sRGB">
<feFlood flood-opacity="0" result="BackgroundImageFix"/>
<feGaussianBlur in="BackgroundImageFix" stdDeviation="0.386716"/>
<feComposite in2="SourceAlpha" operator="in" result="effect1_backgroundBlur_608_13421"/>
<feBlend mode="normal" in="SourceGraphic" in2="effect1_backgroundBlur_608_13421" result="shape"/>
</filter>
<filter id="filter4_b_608_13421" x="709.243" y="577.243" width="28.584" height="28.585" filterUnits="userSpaceOnUse" color-interpolation-filters="sRGB">
<feFlood flood-opacity="0" result="BackgroundImageFix"/>
<feGaussianBlur in="BackgroundImageFix" stdDeviation="0.386716"/>
<feComposite in2="SourceAlpha" operator="in" result="effect1_backgroundBlur_608_13421"/>
<feBlend mode="normal" in="SourceGraphic" in2="effect1_backgroundBlur_608_13421" result="shape"/>
</filter>
<filter id="filter5_b_608_13421" x="719.235" y="517.639" width="264.054" height="79.7724" filterUnits="userSpaceOnUse" color-interpolation-filters="sRGB">
<feFlood flood-opacity="0" result="BackgroundImageFix"/>
<feGaussianBlur in="BackgroundImageFix" stdDeviation="2.14452"/>
<feComposite in2="SourceAlpha" operator="in" result="effect1_backgroundBlur_608_13421"/>
<feBlend mode="normal" in="SourceGraphic" in2="effect1_backgroundBlur_608_13421" result="shape"/>
</filter>
<filter id="filter6_b_608_13421" x="752.227" y="510.227" width="9.08788" height="9.08788" filterUnits="userSpaceOnUse" color-interpolation-filters="sRGB">
<feFlood flood-opacity="0" result="BackgroundImageFix"/>
<feGaussianBlur in="BackgroundImageFix" stdDeviation="0.386716"/>
<feComposite in2="SourceAlpha" operator="in" result="effect1_backgroundBlur_608_13421"/>
<feBlend mode="normal" in="SourceGraphic" in2="effect1_backgroundBlur_608_13421" result="shape"/>
</filter>
<filter id="filter7_b_608_13421" x="742.243" y="500.243" width="28.584" height="28.585" filterUnits="userSpaceOnUse" color-interpolation-filters="sRGB">
<feFlood flood-opacity="0" result="BackgroundImageFix"/>
<feGaussianBlur in="BackgroundImageFix" stdDeviation="0.386716"/>
<feComposite in2="SourceAlpha" operator="in" result="effect1_backgroundBlur_608_13421"/>
<feBlend mode="normal" in="SourceGraphic" in2="effect1_backgroundBlur_608_13421" result="shape"/>
</filter>
<filter id="filter8_b_608_13421" x="751.939" y="418.139" width="303.85" height="101.941" filterUnits="userSpaceOnUse" color-interpolation-filters="sRGB">
<feFlood flood-opacity="0" result="BackgroundImageFix"/>
<feGaussianBlur in="BackgroundImageFix" stdDeviation="2.14452"/>
<feComposite in2="SourceAlpha" operator="in" result="effect1_backgroundBlur_608_13421"/>
<feBlend mode="normal" in="SourceGraphic" in2="effect1_backgroundBlur_608_13421" result="shape"/>
</filter>
<filter id="filter9_b_608_13421" x="778.227" y="649.227" width="9.08788" height="9.08788" filterUnits="userSpaceOnUse" color-interpolation-filters="sRGB">
<feFlood flood-opacity="0" result="BackgroundImageFix"/>
<feGaussianBlur in="BackgroundImageFix" stdDeviation="0.386716"/>
<feComposite in2="SourceAlpha" operator="in" result="effect1_backgroundBlur_608_13421"/>
<feBlend mode="normal" in="SourceGraphic" in2="effect1_backgroundBlur_608_13421" result="shape"/>
</filter>
<filter id="filter10_b_608_13421" x="768.243" y="639.243" width="28.584" height="28.585" filterUnits="userSpaceOnUse" color-interpolation-filters="sRGB">
<feFlood flood-opacity="0" result="BackgroundImageFix"/>
<feGaussianBlur in="BackgroundImageFix" stdDeviation="0.386716"/>
<feComposite in2="SourceAlpha" operator="in" result="effect1_backgroundBlur_608_13421"/>
<feBlend mode="normal" in="SourceGraphic" in2="effect1_backgroundBlur_608_13421" result="shape"/>
</filter>
<filter id="filter11_b_608_13421" x="778.219" y="648.758" width="316.57" height="48.103" filterUnits="userSpaceOnUse" color-interpolation-filters="sRGB">
<feFlood flood-opacity="0" result="BackgroundImageFix"/>
<feGaussianBlur in="BackgroundImageFix" stdDeviation="2.14452"/>
<feComposite in2="SourceAlpha" operator="in" result="effect1_backgroundBlur_608_13421"/>
<feBlend mode="normal" in="SourceGraphic" in2="effect1_backgroundBlur_608_13421" result="shape"/>
</filter>
<filter id="filter12_b_608_13421" x="637.23" y="476.402" width="9.08788" height="9.08788" filterUnits="userSpaceOnUse" color-interpolation-filters="sRGB">
<feFlood flood-opacity="0" result="BackgroundImageFix"/>
<feGaussianBlur in="BackgroundImageFix" stdDeviation="0.386716"/>
<feComposite in2="SourceAlpha" operator="in" result="effect1_backgroundBlur_608_13421"/>
<feBlend mode="normal" in="SourceGraphic" in2="effect1_backgroundBlur_608_13421" result="shape"/>
</filter>
<filter id="filter13_b_608_13421" x="627.243" y="466.243" width="28.584" height="28.585" filterUnits="userSpaceOnUse" color-interpolation-filters="sRGB">
<feFlood flood-opacity="0" result="BackgroundImageFix"/>
<feGaussianBlur in="BackgroundImageFix" stdDeviation="0.386716"/>
<feComposite in2="SourceAlpha" operator="in" result="effect1_backgroundBlur_608_13421"/>
<feBlend mode="normal" in="SourceGraphic" in2="effect1_backgroundBlur_608_13421" result="shape"/>
</filter>
<filter id="filter14_b_608_13421" x="394.711" y="383.639" width="252.485" height="102.584" filterUnits="userSpaceOnUse" color-interpolation-filters="sRGB">
<feFlood flood-opacity="0" result="BackgroundImageFix"/>
<feGaussianBlur in="BackgroundImageFix" stdDeviation="2.14452"/>
<feComposite in2="SourceAlpha" operator="in" result="effect1_backgroundBlur_608_13421"/>
<feBlend mode="normal" in="SourceGraphic" in2="effect1_backgroundBlur_608_13421" result="shape"/>
</filter>
<linearGradient id="paint0_linear_608_13421" x1="447" y1="626.5" x2="291" y2="626.5" gradientUnits="userSpaceOnUse">
<stop stop-color="white"/>
<stop offset="1" stop-color="white" stop-opacity="0"/>
</linearGradient>
<linearGradient id="paint1_linear_608_13421" x1="881" y1="523" x2="979" y2="523" gradientUnits="userSpaceOnUse">
<stop stop-color="white"/>
<stop offset="1" stop-color="white" stop-opacity="0"/>
</linearGradient>
<linearGradient id="paint2_linear_608_13421" x1="904.25" y1="423.5" x2="1049.5" y2="423.5" gradientUnits="userSpaceOnUse">
<stop stop-color="white"/>
<stop offset="1" stop-color="white" stop-opacity="0"/>
</linearGradient>
<linearGradient id="paint3_linear_608_13421" x1="936.75" y1="691.5" x2="1090" y2="691.5" gradientUnits="userSpaceOnUse">
<stop stop-color="white"/>
<stop offset="1" stop-color="white" stop-opacity="0"/>
</linearGradient>
<linearGradient id="paint4_linear_608_13421" x1="520.627" y1="389" x2="399" y2="389" gradientUnits="userSpaceOnUse">
<stop stop-color="white"/>
<stop offset="1" stop-color="white" stop-opacity="0"/>
</linearGradient>
</defs>
</svg>
