<svg width="459" height="588" viewBox="0 0 459 588" fill="none" xmlns="http://www.w3.org/2000/svg">
<path d="M39.5 60.5C11 77.5 28 50 5.5 110.5C3.66667 117.167 1.1 135.3 5.5 154.5C9.9 173.7 7.33333 299.167 5.5 359.5L0 516L5.5 588L65.5 583.5L68 572L78.5 535L342 539.5L384 535L378.5 572L387 588L444.5 584L450.5 542C451.021 504.937 458.505 437.08 458 373L452.5 210C449.5 88 427 83.5 422 74.5C417.617 66.6113 373 45.6667 342 32.5C333.667 29.5 302.7 17.5 297.5 11.5C291 4 289.5 0 273.5 0H163.5C154.051 0 149.064 7.58631 144 11.5C137.005 16.9057 131.35 19.3898 127 22C119.5 26.5 68 43.5 39.5 60.5Z" fill="#742F2F"/>
</svg>
