<?xml version="1.0" standalone="no"?>
<!DOCTYPE svg PUBLIC "-//W3C//DTD SVG 20010904//EN"
 "http://www.w3.org/TR/2001/REC-SVG-20010904/DTD/svg10.dtd">
<svg version="1.0" xmlns="http://www.w3.org/2000/svg"
 width="700.000000pt" height="700.000000pt" viewBox="0 0 700.000000 700.000000"
 preserveAspectRatio="xMidYMid meet">
<metadata>
Created by potrace 1.14, written by Peter Selinger 2001-2017
</metadata>
<g transform="translate(0.000000,700.000000) scale(0.100000,-0.100000)"
fill="#000000" stroke="none">
<path d="M4398 5403 c-67 -117 -216 -375 -443 -768 -328 -568 -358 -620 -375
-650 -10 -16 -75 -129 -145 -250 -70 -121 -137 -238 -150 -260 -138 -245 -405
-700 -412 -702 -5 -2 -53 75 -108 169 -55 95 -105 182 -112 193 -7 11 -15 27
-19 35 -14 27 -276 463 -337 560 -301 474 -542 795 -772 1026 -148 149 -216
208 -330 286 -225 155 -437 226 -691 234 l-132 4 0 -315 c-1 -173 2 -315 6
-316 4 -1 44 -2 90 -4 91 -4 170 -24 247 -62 219 -110 488 -379 753 -753 45
-63 86 -120 92 -127 5 -7 10 -14 10 -17 0 -3 19 -33 43 -68 98 -143 322 -510
501 -818 36 -63 71 -122 76 -130 5 -8 27 -47 49 -86 22 -40 94 -164 159 -276
66 -112 129 -222 141 -243 12 -22 32 -56 44 -76 12 -20 36 -61 53 -90 110
-192 219 -376 229 -387 10 -11 75 96 326 530 374 648 384 666 484 838 43 74
86 149 95 165 9 17 23 41 31 55 18 28 211 362 231 400 7 14 26 44 41 67 15 24
27 45 27 47 0 3 36 66 80 142 44 75 80 138 80 139 0 2 23 40 50 85 28 45 50
84 50 86 0 3 23 43 51 90 l51 85 20 -37 c19 -36 301 -525 403 -699 29 -49 64
-110 77 -135 14 -25 108 -187 208 -360 100 -173 191 -331 202 -350 11 -19 88
-152 171 -295 82 -143 161 -280 175 -305 13 -25 28 -49 32 -55 4 -5 19 -30 32
-55 54 -98 189 -333 194 -339 3 -3 535 -4 691 -2 l42 1 -59 101 c-33 55 -60
102 -60 104 0 3 -20 38 -45 78 -25 41 -45 78 -45 82 0 4 -8 19 -19 33 -10 15
-29 47 -43 72 -14 25 -48 85 -77 133 -28 49 -51 91 -51 94 0 3 -8 17 -18 31
-11 15 -33 52 -49 82 -27 48 -108 188 -133 230 -10 16 -138 239 -173 300 -10
19 -40 71 -66 115 -25 44 -50 88 -56 98 -26 45 -219 380 -310 537 -56 96 -113
195 -127 220 -14 25 -71 123 -127 219 -55 95 -101 175 -101 177 0 1 -35 63
-78 136 -134 227 -262 448 -262 452 0 3 -94 165 -120 206 -5 8 -28 49 -52 90
-23 41 -49 87 -58 101 -8 15 -37 65 -64 113 -27 47 -52 86 -56 86 -3 0 -31
-44 -62 -97z"/>
</g>
</svg>
